# xmcd
#
# Track frame offsets:
#	150
#	12622
#	30603
#	54330
#	73698
#	92667
#	109497
#	131274
#	151280
#	168180
#	191467
#	203624
#
# Disc length: 3042 seconds
#
# Revision: 0
# Processed by: cddbd v1.4PL0 Copyright (c) Steve Scherf et al.
# Submitted via: dBpowerAMP V4.0
#
DISCID=980be00c
DTITLE=Jessi Lynn - Remember Me
DYEAR=2000
DGENRE=Country
TTITLE0=Honey, it's you
TTITLE1=Crazy Mary
TTITLE2=Money back guarantee
TTITLE3=My love
TTITLE4=I think you're perfect
TTITLE5=Still
TTITLE6=All I want
TTITLE7=If we did not have men
TTITLE8=Dance in the rain
TTITLE9=The precious things in life
TTITLE10=Glory Days
TTITLE11=Remember me
EXTD=Jessi Lynn - BMI 2000\nRemember Me
EXTT0=
EXTT1=
EXTT2=
EXTT3=
EXTT4=
EXTT5=
EXTT6=
EXTT7=
EXTT8=
EXTT9=
EXTT10=
EXTT11=
PLAYORDER=
